<?xml version="1.0" encoding="utf-8"?>
<!-- Generator: Adobe Illustrator 26.2.1, SVG Export Plug-In . SVG Version: 6.00 Build 0)  -->
<svg version="1.1" id="Layer_1" xmlns="http://www.w3.org/2000/svg" xmlns:xlink="http://www.w3.org/1999/xlink" x="0px" y="0px"
	 viewBox="0 0 85 85" style="enable-background:new 0 0 85 85;" xml:space="preserve">
<style type="text/css">
	.st0{fill:#FFFFFF;}
</style>
<path class="st0" d="M68.2,19.1c-4.9-2.2-10-3.8-15.3-4.7c-0.7,1.3-1.4,2.6-2,4c-5.6-0.8-11.4-0.8-17,0c-0.6-1.4-1.2-2.7-2-4
	c-5.3,0.9-10.4,2.5-15.3,4.7C6.9,33.4,4.3,47.4,5.6,61.2l0,0c5.7,4.2,12,7.4,18.8,9.4c1.5-2,2.9-4.2,4-6.5c-2.2-0.8-4.3-1.8-6.3-3
	c0.5-0.4,1.1-0.8,1.6-1.2c11.9,5.6,25.7,5.6,37.5,0c0.5,0.4,1,0.8,1.6,1.2c-2,1.2-4.1,2.2-6.3,3c1.2,2.3,2.5,4.4,4,6.5
	c6.8-2,13.1-5.2,18.8-9.4l0,0C80.7,45.2,76.6,31.3,68.2,19.1z M30.1,52.7c-3.7,0-6.7-3.3-6.7-7.4s2.9-7.4,6.7-7.4
	c3.8,0,6.8,3.4,6.7,7.4C36.7,49.4,33.8,52.7,30.1,52.7z M54.7,52.7c-3.7,0-6.7-3.3-6.7-7.4s2.9-7.4,6.7-7.4c3.8,0,6.7,3.4,6.7,7.4
	C61.3,49.4,58.5,52.7,54.7,52.7z"/>
</svg>
