<?xml version="1.0" encoding="utf-8"?>
<!-- Generator: Adobe Illustrator 26.2.1, SVG Export Plug-In . SVG Version: 6.00 Build 0)  -->
<svg version="1.1" id="Layer_1" xmlns="http://www.w3.org/2000/svg" xmlns:xlink="http://www.w3.org/1999/xlink" x="0px" y="0px"
	 viewBox="0 0 85 85" style="enable-background:new 0 0 85 85;" xml:space="preserve">
<style type="text/css">
	.st0{fill:#FFFFFF;}
</style>
<g>
	<path class="st0" d="M38.9,32.4c0-1.9-1.5-3.4-3.4-3.4c-1.9,0-3.4,1.5-3.4,3.4c0,1.9,1.5,3.4,3.4,3.4
		C37.4,35.8,38.9,34.3,38.9,32.4z"/>
	<path class="st0" d="M50.1,29.1c-1.9,0-3.4,1.5-3.4,3.4c0,1.9,1.5,3.4,3.4,3.4c1.9,0,3.4-1.5,3.4-3.4C53.5,30.6,52,29.1,50.1,29.1z
		"/>
	<path class="st0" d="M49.3,40.5c-1.3,1.3-3.4,1.9-6.5,1.9c-3.1,0-5.2-0.6-6.5-1.9c-0.4-0.4-0.9-0.4-1.3,0c-0.4,0.4-0.4,0.9,0,1.3
		l0,0c1.6,1.6,4.2,2.4,7.8,2.4c3.6,0,6.1-0.8,7.8-2.4c0.4-0.4,0.4-0.9,0-1.3c0,0,0,0,0,0C50.2,40.2,49.6,40.2,49.3,40.5z"/>
	<path class="st0" d="M66.8,28.8c0-3-2.4-5.5-5.5-5.5c-1.3,0-2.6,0.5-3.6,1.4c-4.1-2.5-8.8-3.9-13.6-4l2.8-8.9l7.7,1.8
		c0,2.5,2,4.5,4.5,4.5c2.5,0,4.5-2,4.5-4.5c0-2.5-2-4.5-4.5-4.5c-1.8,0-3.4,1.1-4.1,2.7l-8.5-2c-0.5-0.1-1,0.1-1.1,0.6c0,0,0,0,0,0
		l-3.2,10.3c-5.1,0-10,1.4-14.3,4c-2.3-2-5.7-1.8-7.7,0.5c-2,2.3-1.8,5.7,0.5,7.7c0.3,0.2,0.5,0.4,0.8,0.6c-0.1,0.5-0.1,1-0.1,1.5
		c0,3.9,2.2,7.6,6.4,10.3c1.4,0.9,2.8,1.7,4.4,2.2c-3.3,1.8-5.4,5.4-5.2,9.2c0,4.7,2.8,8.6,6.5,9.6c0.3,0.9,0.6,1.7,1,2.6h-0.5
		c-3.4,0-6,2.2-6,5.1c0,0.5,0.1,0.9,0.2,1.3c0.1,0.4,0.5,0.6,0.9,0.6h27.7c0.4,0,0.8-0.3,0.9-0.7c0.1-0.4,0.2-0.9,0.2-1.3
		c0-2.8-2.7-5.1-6-5.1h-0.4c0.3-0.8,0.7-1.7,1-2.6c3.7-1,6.5-4.9,6.5-9.6c0.1-3.8-1.9-7.4-5.3-9.2c1.5-0.6,3-1.3,4.4-2.2
		c4.2-2.7,6.4-6.4,6.4-10.3c0-0.5,0-1-0.1-1.5C65.8,32.5,66.8,30.7,66.8,28.8z M61.8,13.6c0,1.5-1.2,2.7-2.6,2.7
		c-1.5,0-2.7-1.2-2.7-2.6c0-1.5,1.2-2.7,2.6-2.7C60.5,10.9,61.7,12.1,61.8,13.6C61.8,13.6,61.8,13.6,61.8,13.6z M55.9,73.9
		c0,0,0,0.1,0,0.1H48c0.9-0.9,1.6-2,2.2-3.1c0.4-0.1,0.9-0.2,1.4-0.2C54,70.7,55.9,72.1,55.9,73.9z M33.8,70.7c0.5,0,1,0.1,1.5,0.2
		c0.6,1.1,1.4,2.2,2.2,3.1h-8v-0.1C29.6,72.1,31.5,70.7,33.8,70.7z M45.1,74h-4.6c-4.1-2.3-7.1-10.5-7.1-19.7c0-2.1,0.2-4.2,0.5-6.2
		c5.8,1.7,12,1.7,17.8,0c0.3,2.1,0.5,4.1,0.5,6.2C52.2,63.4,49.2,71.6,45.1,74L45.1,74z M31.8,49.9c-0.1,1.5-0.2,3-0.2,4.5
		c0,3.3,0.4,6.6,1.1,9.7c-2.6-1.5-4.1-4.4-4-7.4C28.6,54,29.8,51.5,31.8,49.9L31.8,49.9z M52.9,64.1c0.8-3.2,1.1-6.5,1.1-9.7
		c0-1.5-0.1-3-0.2-4.5c2,1.7,3.2,4.2,3.1,6.8C57,59.7,55.5,62.5,52.9,64.1L52.9,64.1z M42.8,47.6C32,47.6,23.1,42,23.1,35.1
		c0-6.9,8.8-12.5,19.6-12.5c10.8,0,19.6,5.6,19.6,12.5C62.4,42,53.6,47.5,42.8,47.6L42.8,47.6z M24.3,25.2c0.7,0,1.5,0.2,2.1,0.7
		c-2,1.5-3.5,3.5-4.4,5.8c-1.5-1.3-1.8-3.5-0.5-5.1C22.2,25.6,23.2,25.2,24.3,25.2L24.3,25.2z M59.4,25.8c0.6-0.4,1.3-0.7,2.1-0.7
		c2,0,3.6,1.6,3.6,3.6c0,1.1-0.5,2.1-1.3,2.8C62.8,29.3,61.3,27.3,59.4,25.8L59.4,25.8z"/>
</g>
</svg>
