<?xml version="1.0" encoding="utf-8"?>
<!-- Generator: Adobe Illustrator 26.2.1, SVG Export Plug-In . SVG Version: 6.00 Build 0)  -->
<svg version="1.1" id="Layer_1" xmlns="http://www.w3.org/2000/svg" xmlns:xlink="http://www.w3.org/1999/xlink" x="0px" y="0px"
	 viewBox="0 0 600 600" style="enable-background:new 0 0 600 600;" xml:space="preserve">
<style type="text/css">
	.st0{fill:#FFFFFF;}
</style>
<g>
	<path class="st0" d="M156.1,187.9c1.8-10.8-10.2-16.2-20.4-16.5c-12.3-0.6-21.3,1.8-22.8,9.6c-1.8,10.8,26.7,15.3,46.1,21.6
		c28.5,9.3,70.7,18.9,61.1,69.2c-8.4,45.8-46.7,65.3-108.7,65.3c-74.6,0-107.6-38.6-100.4-76.4c21.6,0,74.6,0,74.6,0
		c-2.4,14.1,10.2,17.7,22.2,18.6c14.1,1.2,22.8-1.2,24-8.7c1.8-9.6-1.8-12.3-24.9-19.8c-49.7-15.9-82.1-33.9-74.6-75.5
		c9.9-53,69.5-59.3,111.7-59.3c36.8,0,95.9,18.9,86,71.9C205.2,187.9,156.1,187.9,156.1,187.9z"/>
	<g>
		<path class="st0" d="M200,415.2c0.5-1.5,1.5-2,0.5-3.5C200.5,412.7,199.5,413.7,200,415.2z"/>
		<path class="st0" d="M589.7,71.9c-0.5-1-0.5-2-1.5-3c-0.5-0.5-1-0.5-1.5-1c-2-2-4.5-3.5-7.6-4.5c-1.5-1-3.5-1.5-5-2.5
			c-1-1-2-1.5-3-1.5c-3-0.5-6.6-1.5-9.6-2.5c-1.5-0.5-3-0.5-4.5-1c-3.5-0.5-7.1-0.5-10.6-1c-2,0-3.5,1-5,2.5c-2,2-4,5-6,7.1
			c-1,1.5-2,3.5-2.5,5c-1,1.5-1.5,3.5-2,5c-1,1-2,2-2,4c0,0.5-0.5,1-1,1.5c-1,1-2.5,2.5-3,4c-1,2-2,4.5-3.5,6.1
			c-0.5,1-0.5,1.5-1,2.5c-1.5,3-4,5.5-5,8.6c0,0.5,0,0.5-0.5,1c-0.5,1.5-1.5,2.5-2,4c-0.5,2-1,4-2.5,5.5c-1,1.5-1,3-1.5,4
			c-1.5,2-2.5,4-3.5,6.6c-1.5,2-1.5,5-3.5,7.1c-0.5,2-1.5,3.5-2.5,5c-0.5,2-1.5,4-2.5,5.5c-1,2-1.5,4.5-3.5,6.6c0,0,0,0.5,0,1
			c-0.5,2-1.5,4-2.5,5.5c-2,5-4.5,9.6-6.6,14.6c-0.5,0.5-1.5,1.5-1.5,2.5c-0.5,3-2.5,5-3.5,8.1c-0.5,1-1,2.5-1.5,3.5
			c-1.5,2-2.5,4.5-3,6.6c-1,3-2.5,5.5-4,8.1c-0.5,1.5-1.5,3-1.5,4.5c-0.5,2-1,4-1.5,6.1c-1,1-2,2-2.5,3.5c-2.5,5-5.5,10.6-7.6,15.6
			c-0.5,1.5-1,2.5-2,3.5c-0.5,2.5-1.5,4.5-2.5,6.6c-1.5,4-3,7.6-4.5,11.6c-1,2.5-2,4.5-2,7.6c-2.5,0.5-4.5,0.5-6.6-1.5
			c-1.5-0.5-3-1-4-1c-2.5,0-5-1-7.1-1c-2,0-4-0.5-5.5,0c-1-0.5-2-1-3.5-1c-3,0.5-6.1-0.5-9.1-0.5c-4,0-8.1-0.5-12.1-0.5
			c-3,0-6.1-0.5-9.1-0.5l-0.5-0.5c-2,1-4,0.5-5.5-0.5c-1,0-1,1-1.5,1c-3-0.5-6-1-8.6-0.5c-0.5,0-1,0-1.5,0c-3.5,0-7.6,0-11.1,0h-0.5
			c-3.5,0.5-6.6,0.5-10.1,0c-0.5,0-1.5,0.5-2,1c-0.5-0.5-1-1-1.5-1c-6.1,1-11.6,0.5-17.1,1c-4-0.5-8.1,1-12.1,0c0-1,0-2,0.5-2.5
			c0-1,0.5-2,1-3c0-0.5,0.5-1,0.5-2c0-1,0.5-2,1-3c1-1.5,2-3,2-5c0.5-3.5,1.5-7.1,2.5-10.6c2-5,4-10.1,4.5-15.6c0.5-0.5,0.5-1,1-2
			c0.5-1.5,1.5-3.5,2-5.5c1-2.5,2-5,3.5-7.6c2-3,3-7.1,4-10.6c1.5-3.5,2-7.6,4.5-10.6c0.5-0.5,0.5-1,0.5-1.5c1.5-3,2.5-5.5,3-8.6
			c0.5-2,1.5-3.5,2-5.5c1-3.5,2-7.6,3.5-11.1c1-3,2-6,3-9.1c0.5-1.5,1-3,1.5-4.5c0.5-3.5,1.5-7.1,3-10.1c1-3,2-5.5,1.5-9.1
			c-0.5-3-2-5.5-5-7.6c-2-1-4.5-2.5-6.6-4c-2-1-4-2-5.5-3c-2-1.5-4.5-2-6.6-2.5c-3-1-6.1-1.5-8.6-3c-2.5-1.5-5-2-7.1-3
			c-3.5-1.5-6.6-1-9.6,0.5c-0.5,0-1,0.5-1.5,1c-0.5,1.5-1.5,3-2.5,4.5c-0.5,1-1.5,2-1.5,3.5c-1,3-2,5.5-3.5,8.6
			c-2,3.5-3.5,7.1-4.5,11.1c0,2-1,4-2,6c-0.5,0.5-0.5,1-1,1.5c-2,5.5-4.5,11.1-6.6,16.6c-1,2-2,4.5-3,6.6c-1.5,3.5-2.5,6.6-3.5,10.1
			c-2,5-4.5,10.6-6.6,15.6c-1.5,3.5-2.5,7.1-4.5,10.6c0,0.5,0,1.5,0,2.5c-0.5,0-1,0.5-1,1c-1,3-2.5,6.1-3,9.1c0,1.5-0.5,3-1.5,4.5
			c-1,1-1.5,2-1.5,3c-0.5,1-0.5,1.5-1,2.5c-0.5,2.5-1.5,4.5-1.5,7.6c0,1.5-1,3-1.5,4.5c-1,1-1.5,2.5-1.5,4c-1,1-1.5,2-2,3.5
			c0.5,0.5,1,0,0.5,0.5c-0.5,0.5-1.5,1.5-1.5,2.5c0,0,0.5,0,0.5,0.5c-2,2.5-3.5,5-4.5,8.1c-0.5,2-1.5,4-2,6c-0.5,2.5-2,4-3,6.1
			c0,1.5-1,2-2,2c-3,0.5-6.6,0-9.6,1c-1.5,0.5-3,0-5,0.5c-0.6,0-1.2,0-1.7-0.1c0.3,5.1-0.1,10.7-1.3,17
			c-4.7,25.5-18.6,42.8-40.7,53.2c1,0.2,2.1,0.3,3.3,0.5c0.5,0,1,0,2,0.5c1,0.5,2,1,3.5,1c1.5,0,3-0.5,4,0.5c0.5,0.5,0,1.5,1,2
			c0.5,0,1,0.5,2,0.5c0.5-0.5,1-0.5,1.5-0.5c2,0,4.5,0,7.1-0.5c1.5,0,3.5,0,5.5,1c0.5,1,0,2-0.5,2.5c-1.5,2.5-2,5.5-3,8.6
			c-1,2.5-1.5,5-3,7.6c-0.5,1-0.5,2,0,3.5c0,1,0,2.5,0.5,3.5c0,5.5-1.5,10.6-4.5,15.1c-1.5,2-2,4.5-3,7.1c0,0.5,0,1,0,1.5
			c0,2.5,0,5.5-0.5,8.1c0,0.5,0,1,0,2c0.5,3.5,0.5,7.6-0.5,11.1c-1,3-1,6-1.5,9.6c0.5-1,0.5-1.5,0.5-2.5c0-1,0.5-1.5,1-2.5
			c1,1.5,0.5,2.5,0,3.5c0,1.5-0.5,3-0.5,5c0.5,0,0.5,0,1,0c0-0.5,0-1,0.5-1.5c1.5,0,0.5-1.5,1.5-2c0.5,2.5-1.5,5.5-1,8.1
			c0.5,0.5,1-0.5,2,0c0,2-0.5,3.5-0.5,5c0,2-1,3.5-0.5,5c1,0.5,1-0.5,1.5,0c0,1-1,2.5-0.5,3.5c1,0,0.5-1,1.5-1l0.5,0.5
			c1.5-1.5,1.5-4,3-5.5c1,0.5,0.5,1.5,0,2c-0.5,1.5-1,3-1,5c1-1.5,1.5-3,2-4.5c0.5-1.5,1.5-3,3-4c-0.5,4.5-3,8.6-3.5,12.6
			c0.5,0,1,1,1.5,1c0.5-2,3-2,4-3c1,1.5,1,3,0,4.5c-0.5,1-1,2-2,3c-2.5,2-3,4.5-2.5,7.6c0,0.5,1,1,1,1.5c0,1-0.5,1.5-1,2
			c-0.5,1-1,1.5-1,2.5c-0.5,0,0,0,0,0.5c0.5,0,1,0,1.5-0.5c1.5-2,3-4,4-5.5c2.5-2,5-1.5,7.6-2c1-2.5,2-4.5,4-6.1
			c0-0.5,0.5-1,0.5-1.5c1.5-2,3.5-4.5,4.5-6.6c1-1.5,2-3,2.5-4.5c1.5-3,3-5.5,4-9.1c0.5,0,0.5-0.5,1-1c0.5-1,1.5-2.5,2-3.5
			c1-3,3-5,4-7.6c0.5-1,1-1.5,1-2.5c0-0.5,0-1.5,1-2c0.5-1,1-2,1.5-3c0.5-1.5,1-3,1.5-4c1-2.5,2-4.5,3-6.6c0-1,0.5-2.5,1-3
			c2-3,3-6.6,4.5-9.6c1.5-3.5,3-7.1,4.5-10.6c1.5-3,2.5-6,4-9.1c0.5-2,1.5-4,2.5-6c0.5-2,1.5-3.5,2-5c1-1.5,1.5-4,3.5-4.5
			c0-1.5,1-2.5,1.5-4c0-1,0-1.5-0.5-2c1.5-1.5,1-4,2.5-5.5c2-0.5,4-0.5,5.5-1c1.5-0.5,2.5-0.5,4-0.5c2,0,4.5,0.5,6.6-0.5
			c1,0,2.5-0.5,3.5-0.5c2,0.5,4,0,6,0c2.5,0,4.5-1,7.1,0h0.5c1.5-0.5,3.5-0.5,5-1.5c1.5,0.5,2.5,0.5,4,0.5c2.5-0.5,5-0.5,7.6-1
			c2.5,0,3,0.5,4,2.5c2,0.5,4.5,1,6.6,0c1-1,1-2,2-2.5c1,0.5,2,0.5,3,0.5c-1,1-2.5,1-2.5,2c0,0.5,0.5,0.5,1,0.5c0,0,0.5-0.5,1-0.5
			c1,1,2,1,3,0.5c0-0.5-0.5-0.5-1-1c1-0.5,1.5-1,2.5-2c1,0,2,0.5,2.5,0.5c0.5,0.5-0.5,1,0,1.5c1.5,0,3,1,5-0.5c-0.5-0.5-1-0.5-1.5-1
			c1-0.5,2.5,0,3.5-1c0.5,0,0.5,0.5,1,0.5c1.5,0.5,3.5,0.5,5,0c1.5,0,2.5-0.5,4-0.5c1,0,2.5,0,4,0c2,0.5,4,0,5.5,1c3-1,6.6-1,9.1,0
			c6.6,0,13.1-0.5,20.7-1c1,0.5,3,0.5,5,0c0,0.5,0.5,1,0,1c-1,2.5-1.5,4.5-2.5,7.1c-0.5,2.5-1.5,4-2.5,6.1c-0.5,1.5-0.5,3-1.5,4.5
			c-1.5,3-2.5,6-3.5,9.1c-1.5,5-3.5,10.1-5,15.1c-1,2-2,4.5-2,7.1c-0.5,1-1.5,1.5-1.5,2.5c-0.5,2-1,3.5-2,5.5c-1.5,4-3,8.1-4.5,12.6
			c-0.5,2-1,4-2,6.6c-1,3-2.5,6.6-3.5,10.1c-1,3.5-2.5,6.6-3.5,9.6c-0.5,1-1,2-1,3c-0.5,3-1.5,5.5-2.5,8.6c0,1-0.5,2-1,3
			c-0.5,3-1.5,6.1-2.5,8.6c-0.5,2.5-1,5-2,8.1c-0.5,3-1.5,6.6-2,10.1c-1.5,6.1-2.5,12.6-3,19.2c0,1.5,0,3,1,4.5c-0.5,0-0.5,0-1,0
			v0.5c0,2,0,4,0.5,6.1c0.5,0.5,1,0.5,1.5,1c0,0.5,0,0.5,0.5,0.5c0,0.5,0,0.5-1,0.5c-0.5,1-1.5,0.5-2,1c0,1.5,1,2,1,3
			c2,0,0.5-0.5,1.5-0.5c0.5,0,1.5,1,2.5,1.5c-1,0.5-1.5,0.5-2-0.5c-1.5-1.5-0.5,1,0.5,2c0.5,1,0,1.5,0,2.5c-0.5,0.5-0.5,1,0,1.5
			c0,0-0.5,0-0.5,0.5c0,1,0.5,2,1.5,2.5c1,0,1.5-0.5,2.5-1c0-0.5,0-1,0.5-1.5l0.5,0.5c2,0,2.5,1.5,3,2.5c0.5,1,0,2,0,3
			c1,2,0,3.5-0.5,5.5c0,0.5,0,1,0,1.5c0,1-0.5,1.5-0.5,2c0.5,1.5,1.5,2,2,3.5c1-1,1-2.5,2.5-3.5c1,0,2-1,3.5-1c0.5-0.5,0-1.5,1-1.5
			c0,1,0,1.5-0.5,2.5c-0.5,1.5-1,3.5-2,5c-0.5,0.5-0.5,1-0.5,2v0.5c1,0,1-1,2-0.5c1.5,1.5,0.5,3.5,0.5,5c1,1,1.5,2,1.5,3.5
			c0,1.5-0.5,3.5-1,5c-0.5,0.5-0.5,1.5,0.5,2c1-0.5,1.5-1.5,2-2.5c0-1.5,1-2.5,2-4c0.5,0,0.5,0,1,0.5c1.5-1.5,2-3.5,3-5
			c1.5-2.5,3-5,4.5-7.6c2-3,3.5-6.1,5-9.1c2-3.5,4.5-7.1,6.1-11.1c0.5-1,1.5-2.5,1.5-4s1-3.5,1.5-5c2-3.5,2.5-8.1,4-11.6
			c0-0.5,0-0.5,0-0.5c0.5-1.5,1-3.5,2.5-4.5c0.5-0.5,1-1.5,1-2c0.5-1.5,0.5-3,0.5-4.5c0.5-2.5,1-5,3-7.1c1.5-1,2.5-2,3.5-3.5
			c1-0.5,2-1.5,2-3c0-0.5,0-1,0.5-2c1.5-3,3.5-6.6,5-10.1c0.5-0.5,0.5-1,1-1c1-1.5,1.5-2.5,2-4c1-2.5,2-5,3-7.6c1-2,1.5-4,2.5-5.5
			c1-3,2-5.5,2.5-8.6c0-1,0.5-2,1-3c2.5-4,4.5-8.1,6.6-12.6c0.5-1,1-2.5,1.5-4c0-1,0.5-2,1-2.5c1-1.5,2-3,2.5-4c1-2.5,2.5-5,2.5-7.6
			c0-1.5,0.5-2.5,1.5-4c1-2,2-5,3-7.6c1.5-2.5,2-6.1,3.5-8.6c1.5-3,2.5-6,3.5-9.1c0-0.5,0.5-1,0.5-1c1-2,1.5-4,2.5-5.5
			c0.5-1.5,1-2.5,1.5-4c1-3,2.5-5.5,3-9.1c0-0.5,0.5-1,0.5-1.5c1.5-3,2.5-6,4-9.1c1-1,1.5-2,2-3c0.5-2,1.5-4,1.5-6.1
			c0.5-0.5,0.5-1,1-1.5c1-2.5,2.5-4.5,3-7.1c0.5-1,1-2,1.5-3c0.5-2,2-4,2.5-6.1c0.5-2.5,1-4.5,2-6c1-1,1-2,1.5-3.5c0-2,1-4,2-6.1
			c1-1,1.5-2.5,2-4c1-2,1.5-4,2.5-5.5c1-2.5,2.5-4.5,2.5-7.1c2-3,3-5.5,3.5-9.1c0.5-1,0.5-2,1-3c1.5-1.5,3-3.5,3.5-6
			c0-0.5,0.5-1,1-1.5c0.5-1,1-1.5,1.5-2.5c1-2.5,1.5-5,3-7.1c0-0.5,0.5-1.5,0.5-2c1.5-2.5,2.5-5,3-8.1c0.5-1,1.5-1.5,1.5-2.5
			c0.5-2,1-3.5,1.5-5c0.5-1,1.5-2,2-3c0.5-2.5,1.5-4.5,2.5-7.1c1-1.5,2-2.5,2.5-4.5c0-1.5,1-2.5,2-3.5c0-2,0.5-3.5,1.5-5
			c1-1,1.5-2,1-3c1.5-2,2-4.5,3-6.6c1-2.5,1.5-4.5,3.5-6c0-0.5,0-1.5,0.5-2c1-3,2-6,3-8.6c1-2,2-4,3-6c0.5-1.5,1.5-2.5,1.5-4.5
			c0.5,0,0.5-0.5,0.5-0.5c1.5-2,2-4.5,3-6.6c1-3.5,2.5-7.1,4-10.1c1-3.5,3-6,4.5-9.1c1.5-3.5,3-6.6,4.5-9.6c0.5-0.5,0.5-1,1-1.5
			c1-3,1.5-6,2.5-9.1c1-2.5,2-5.5,3-8.1c1-2,2-4,2.5-6.6c0.5-3,2-5.5,3.5-8.1c1-2,1.5-3.5,2-5.5c0-1.5,0.5-3,1-4
			C589.7,79.9,590.2,75.9,589.7,71.9z M348.7,327c0,0,0,0,0.5,0C348.7,327.5,348.7,327.5,348.7,327z M372.4,481.2
			c-0.5,0-0.5-0.5-0.5-0.5C372.4,480.7,372.4,480.7,372.4,481.2z M371.9,497.9c0,0-0.5,0.5-1,0.5c0-0.5,0-0.5,0-0.5
			C371.4,497.4,371.9,497.9,371.9,497.9c0.5-0.5,0-1,1-1.5C372.9,497.4,372.4,497.4,371.9,497.9z M372.4,488.8c0.5,0,0.5,0,1,0.5
			C372.9,489.3,372.4,489.3,372.4,488.8z M373.4,469.1c0-0.5-0.5-0.5,0-1C373.9,468.1,373.4,468.6,373.4,469.1z M377,447.5
			c-1,0-1.5-0.5-1.5-1.5C376.5,445.9,377,446.5,377,447.5z M375.5,486.8c0,0.5-0.5,0.5-0.5,0.5C375,486.8,375,486.8,375.5,486.8z
			 M375,480.2c0,0.5-0.5,0.5-1,0C373.9,479.7,374.4,479.7,375,480.2z M375.5,498.4c0,0,0,0-0.5,0
			C375.5,497.9,375.5,498.4,375.5,498.4c0.5,0.5,1,0.5,1,1C376,499.4,376,498.9,375.5,498.4z M375,494.3c-0.5-0.5-1-1.5,0-1.5
			c1,0,1,1,1.5,1.5C376,494.8,375.5,494.3,375,494.3z M376.5,487.3c0,0,0-0.5,0.5-0.5C377,487.3,377,487.8,376.5,487.3z
			 M378.5,494.8H378v-0.5c0.5,0,0.5,0,0.5,0S378.5,494.3,378.5,494.8z M378.5,490.8c0,0-0.5,0-1,0c0-1-0.5-1.5-0.5-2
			C378.5,488.8,378.5,489.8,378.5,490.8c0.5,0,0.5,0,0.5,0.5C378.5,490.8,378.5,490.8,378.5,490.8z M378.5,476.7
			c-0.5-0.5,0-0.5,0-0.5c0.5,0,0.5,0,0.5,0.5H378.5z M383.5,473.7c-0.5-1,0-0.5,0.5-1C384,473.2,384,473.7,383.5,473.7z"/>
	</g>
</g>
</svg>
