<?xml version="1.0" encoding="utf-8"?>
<!-- Generator: Adobe Illustrator 26.2.1, SVG Export Plug-In . SVG Version: 6.00 Build 0)  -->
<svg version="1.1" id="Layer_1" xmlns="http://www.w3.org/2000/svg" xmlns:xlink="http://www.w3.org/1999/xlink" x="0px" y="0px"
	 viewBox="0 0 85 85" style="enable-background:new 0 0 85 85;" xml:space="preserve">
<style type="text/css">
	.st0{fill-rule:evenodd;clip-rule:evenodd;fill:#FFFFFF;}
</style>
<path id="Path_2_00000072263838568598400890000002575471219401482670_" class="st0" d="M29.7,70.9c26.5,0,40.8-21.8,40.8-40.8v-1.9
	c2.7-2.1,5.1-4.6,7-7.4c-2.6,1.1-5.4,1.9-8.2,2.3c2.9-1.8,5.1-4.6,6.2-7.8c-2.8,1.6-5.8,2.7-8.9,3.5c-2.7-3-6.5-4.7-10.5-4.7
	c-7.9,0.1-14.3,6.5-14.4,14.4c-0.1,1.1,0,2.1,0.4,3.1C30.5,31,19.8,25.5,12.5,16.4c-1.3,2.3-2,4.8-1.9,7.4c0.1,4.8,2.4,9.2,6.2,12.1
	c-2.3,0-4.6-0.7-6.6-1.9l0,0c0,6.9,4.9,12.8,11.7,14c-1.3,0.3-2.6,0.5-3.9,0.4c-0.9,0.1-1.9-0.1-2.7-0.4c1.9,5.9,7.4,10,13.6,10.1
	c-5.1,4-11.4,6.2-17.9,6.2c-1.2,0.1-2.4-0.1-3.5-0.4C13.9,68.6,21.7,71,29.7,70.9"/>
</svg>
