<?xml version="1.0" encoding="utf-8"?>
<!-- Generator: Adobe Illustrator 26.2.1, SVG Export Plug-In . SVG Version: 6.00 Build 0)  -->
<svg version="1.1" id="Layer_1" xmlns="http://www.w3.org/2000/svg" xmlns:xlink="http://www.w3.org/1999/xlink" x="0px" y="0px"
	 viewBox="0 0 460 230" style="enable-background:new 0 0 460 230;" xml:space="preserve">
<style type="text/css">
	.st0{fill:#FFFFFF;}
</style>
<path class="st0" d="M9.4,73.6c10.1,0,35.2,0,35.2,0c0,6.6,6.1,8.7,11,8.7c5.2,0,7.7-1.7,7.7-4.7c0-4.6-6.1-5.4-17-8.5
	c-23-6.4-33.1-13-33.1-29.1c0-32.3,29.2-33.8,45.1-33.8c20.1,0,42.7,7.8,42.7,33.5c-11.5,0-34.5,0-34.5,0c0-5-3.8-7.7-8.4-7.7
	c-4.3,0-7.1,1.5-7.1,5.3c0,4.9,10.3,7,19.7,9.2c9.4,2.2,33.2,4.7,33.2,28.6c0,27.9-19.7,34.1-45,34.1C22.3,109.2,9.4,89.4,9.4,73.6z
	"/>
<path class="st0" d="M222.5,57.7c0,29.9-22.4,51.5-55,51.5s-55-21.7-55-51.5c0-29.9,22.4-51.5,55-51.5S222.5,27.8,222.5,57.7z
	 M183.5,57.7c0-9.1-6.3-16.5-16.1-16.5c-9.8,0-16.1,7.4-16.1,16.5c0,9.1,7.3,16.5,16.1,16.5C176.2,74.2,183.5,66.8,183.5,57.7z"/>
<path class="st0" d="M300.7,64.2H338c-2,25.8-22.8,45-52.1,45c-32.7,0-55-21.7-55-51.5c0-29.9,22.4-51.5,55-51.5
	c29.3,0,50.1,19.1,52.1,45h-37.3c-2-5.3-5.6-9.8-13.7-9.8c-9.4,0-15.5,7-15.5,16.3c0,9.4,6.1,16.3,15.5,16.3
	C295.1,74,298.7,69.6,300.7,64.2z"/>
<path class="st0" d="M395.1,74.3h-9.5v32.3h-37.2V8.8h37.2v32.3h9.4l12.7-32.3h38.6L425.1,56l25.1,50.6h-40L395.1,74.3z"/>
<path class="st0" d="M102,194.4c0,17.9-10.6,26.7-32.8,26.7c-5.6,0-59.6,0-59.6,0v-97.8c0,0,52.2,0,57,0c22.5,0,33.1,7,33.1,25
	c0,11.9-7.1,20.5-15.1,21.5v1C95.1,172.6,102,182.5,102,194.4z M65.7,189.3c0-5.6-4.2-6.7-9.5-6.7c-3.8,0-11.9,0-12.6,0V196
	c0.7,0,8.8,0,12.6,0C61.5,196,65.7,195.1,65.7,189.3z M44.2,158.5c0.7,0,7.7,0,10.9,0c4.6,0,8.4-0.7,8.4-5.6s-3.8-5.7-8.4-5.7
	c-3.2,0-10.2,0-10.9,0V158.5z"/>
<path class="st0" d="M337.4,172.2c0,29.9-22.4,51.5-55,51.5c-0.4,0-117.8,0-118.2,0c-32-0.6-53.7-22-53.7-51.5
	c0-29.6,21.9-51.1,54.1-51.5c0.3,0,117.6,0,117.9,0C315.1,120.6,337.4,142.3,337.4,172.2z M298.4,172.2c0-9.1-6.3-16.5-16.1-16.5
	c-0.4,0-117.7,0-118,0c-9.1,0.6-14.9,7.7-14.9,16.4c0,8.7,6.7,15.8,14.9,16.4c0.4,0,117.7,0,118,0
	C291.2,188.6,298.4,181.2,298.4,172.2z"/>
<path class="st0" d="M450.3,156.5H420V221h-40.8v-64.5h-30.3v-33.2h101.5V156.5z"/>
<g>
	<path class="st0" d="M205.7,166.3v5.6H242v-5.6c0-0.3,0-0.7,0.1-1h-36.5C205.7,165.6,205.7,165.9,205.7,166.3z"/>
	<path class="st0" d="M242,178.9v-4.8h-36.3v4.8c0,0.1,0,0.2,0,0.3H242C242,179.1,242,179,242,178.9z"/>
	<path class="st0" d="M191.8,178.9v-12.6c0-0.3,0-0.7,0.1-1h-9.1c-3.8,0-7,3.1-7,7l0,0c0,3.8,3.1,7,7,7h9
		C191.8,179.1,191.8,179,191.8,178.9z"/>
	<path class="st0" d="M264.6,165.3h-8.8c0.1,0.3,0.1,0.7,0.1,1v12.6c0,0.1,0,0.2,0,0.3h8.7c3.8,0,7-3.1,7-7l0,0
		C271.6,168.4,268.5,165.3,264.6,165.3z"/>
</g>
</svg>
