<?xml version="1.0" encoding="utf-8"?>
<!-- Generator: Adobe Illustrator 26.2.1, SVG Export Plug-In . SVG Version: 6.00 Build 0)  -->
<svg version="1.1" id="Layer_1" xmlns="http://www.w3.org/2000/svg" xmlns:xlink="http://www.w3.org/1999/xlink" x="0px" y="0px"
	 viewBox="0 0 841.9 595.3" style="enable-background:new 0 0 841.9 595.3;" xml:space="preserve">
<style type="text/css">
	.st0{fill:#FC0174;}
</style>
<path class="st0" d="M32.2,225.7c17.8,0,62,0,62,0c0,11.6,10.7,15.3,19.4,15.3c9.2,0,13.6-3,13.6-8.3c0-8.1-10.7-9.5-29.9-15
	c-40.5-11.3-58.3-22.9-58.3-51.2c0-56.9,51.4-59.5,79.4-59.5c35.4,0,75.2,13.7,75.2,59c-20.3,0-60.8,0-60.8,0
	c0-8.8-6.7-13.6-14.8-13.6c-7.6,0-12.5,2.6-12.5,9.3c0,8.6,18.1,12.3,34.7,16.2c16.6,3.9,58.5,8.3,58.5,50.4c0,49.1-34.7,60-79.2,60
	C54.9,288.4,32.2,253.5,32.2,225.7z"/>
<path class="st0" d="M407.5,197.7c0,52.7-39.4,90.7-96.9,90.7s-96.9-38.2-96.9-90.7c0-52.7,39.4-90.7,96.9-90.7
	S407.5,145,407.5,197.7z M338.8,197.7c0-16-11.1-29.1-28.4-29.1s-28.4,13-28.4,29.1s12.9,29.1,28.4,29.1S338.8,213.7,338.8,197.7z"
	/>
<path class="st0" d="M545.2,209.1h65.7c-3.5,45.4-40.1,79.2-91.7,79.2c-57.6,0-96.9-38.2-96.9-90.7c0-52.7,39.4-90.7,96.9-90.7
	c51.6,0,88.2,33.6,91.7,79.2h-65.7c-3.5-9.3-9.9-17.3-24.1-17.3c-16.6,0-27.3,12.3-27.3,28.7c0,16.6,10.7,28.7,27.3,28.7
	C535.3,226.4,541.7,218.6,545.2,209.1z"/>
<path class="st0" d="M711.4,226.9h-16.7v56.9h-65.5V111.6h65.5v56.9h16.6l22.4-56.9h68l-37.3,83.1l44.2,89.1H738L711.4,226.9z"/>
<path class="st0" d="M195.3,438.4c0,31.5-18.7,47-57.8,47c-9.9,0-105,0-105,0V313.2c0,0,91.9,0,100.4,0c39.6,0,58.3,12.3,58.3,44
	c0,21-12.5,36.1-26.6,37.9v1.8C183.1,400,195.3,417.5,195.3,438.4z M131.4,429.4c0-9.9-7.4-11.8-16.7-11.8c-6.7,0-21,0-22.2,0v23.6
	c1.2,0,15.5,0,22.2,0C124,441.2,131.4,439.6,131.4,429.4z M93.5,375.2c1.2,0,13.6,0,19.2,0c8.1,0,14.8-1.2,14.8-9.9
	c0-8.6-6.7-10-14.8-10c-5.6,0-18,0-19.2,0C93.5,355.3,93.5,375.2,93.5,375.2z"/>
<path class="st0" d="M609.8,399.3c0,52.7-39.4,90.7-96.9,90.7c-0.7,0-207.4,0-208.1,0c-56.3-1.1-94.6-38.7-94.6-90.7
	c0-52.1,38.6-90,95.3-90.7c0.5,0,207.1,0,207.6,0C570.5,308.4,609.8,346.7,609.8,399.3z M541.1,399.3c0-16-11.1-29.1-28.4-29.1
	c-0.7,0-207.3,0-207.8,0c-16,1.1-26.2,13.6-26.2,28.9c0,15.3,11.8,27.8,26.2,28.9c0.7,0,207.3,0,207.8,0
	C528.4,428.2,541.1,415.2,541.1,399.3z"/>
<path class="st0" d="M808.6,371.7h-53.4v113.6h-71.8V371.7H630v-58.5h178.7v58.5H808.6z"/>
<g>
	<path class="st0" d="M377.9,388.9v9.9h63.9v-9.9c0-0.5,0-1.2,0.2-1.8h-64.3C377.9,387.7,377.9,388.2,377.9,388.9z"/>
	<path class="st0" d="M441.8,411.1v-8.5h-63.9v8.5c0,0.2,0,0.4,0,0.5h63.9C441.8,411.5,441.8,411.3,441.8,411.1z"/>
	<path class="st0" d="M353.4,411.1v-22.2c0-0.5,0-1.2,0.2-1.8h-16c-6.7,0-12.3,5.5-12.3,12.3l0,0c0,6.7,5.5,12.3,12.3,12.3h15.8
		C353.4,411.5,353.4,411.3,353.4,411.1z"/>
	<path class="st0" d="M481.6,387.2h-15.5c0.2,0.5,0.2,1.2,0.2,1.8v22.2c0,0.2,0,0.4,0,0.5h15.3c6.7,0,12.3-5.5,12.3-12.3l0,0
		C493.9,392.6,488.5,387.2,481.6,387.2z"/>
</g>
</svg>
